<?xml version="1.0" encoding="utf-8"?>
<!-- Generator: Adobe Illustrator 23.0.1, SVG Export Plug-In . SVG Version: 6.00 Build 0)  -->
<svg version="1.1" id="Layer_1" xmlns="http://www.w3.org/2000/svg" xmlns:xlink="http://www.w3.org/1999/xlink" x="0px" y="0px"
	 viewBox="0 0 800 800" style="enable-background:new 0 0 800 800;" xml:space="preserve">
<path d="M318.17,608.5c-0.54-0.33-0.83,0.35-1.13,0.72c-0.77,0.9-1.26,0.93-2.22,0.22c-1.52-1.11-1.92-2.68-1.76-4.42
	c0.2-2.32,1.1-4.45,2.09-6.52c0.77-1.61,1.65-3.18,2.48-4.76c0.21-0.4,0.48-0.79,0.01-1.32c-0.24,0.18-0.51,0.3-0.66,0.51
	c-0.51,0.7-1.04,1.41-1.47,2.17c-2.27,3.97-4.03,8.16-5.2,12.57c-0.27,1.02-0.26,2.17-0.11,3.23c0.24,1.58,1.06,2.9,2.62,3.57
	c0.29,0.12,0.7,0.27,0.94,0.16c1.43-0.62,2.75-1.4,3.43-2.93c0.26-0.61,0.55-1.21,0.84-1.81
	C318.25,609.43,318.82,608.89,318.17,608.5z M385.89,640.64c-0.43,0.25-0.7,0.41-0.97,0.57c-0.43,0.25-0.84,0.55-1.3,0.74
	c-1.6,0.66-3.11,0.15-3.95-1.37c-0.79-1.41-1.09-2.92-0.43-4.45c0.46-1.07,0.9-2.21,1.61-3.11c1.61-2.05,2.67-4.43,3.98-6.65
	c0.2-0.33,0.52-0.7,0.13-1.15c-0.53-0.05-0.68,0.37-0.9,0.71c-1.2,1.86-2.38,3.73-3.59,5.58c-1.68,2.56-3.11,5.23-4.16,8.11
	c-0.58,1.58-0.51,3.12,0.1,4.65c0.72,1.81,2.2,2.8,3.9,2.37c1.19-0.3,2.29-0.96,3.43-1.48c0.14-0.06,0.27-0.21,0.35-0.35
	c0.61-1.09,1.22-2.18,1.79-3.28C385.97,641.34,385.89,641.07,385.89,640.64z M657.02,608.78c0.95-0.98,1.77-2.09,2.62-3.17
	c0.17-0.21,0.18-0.54,0.27-0.82c-0.09-0.06-0.18-0.13-0.27-0.19c-0.58,0.42-1.22,0.79-1.74,1.29c-2.17,2.09-4.07,4.43-5.77,6.91
	c-1.29,1.89-2.19,4.01-3.05,6.16c-0.69,1.72-0.93,3.44-0.68,5.26c0.18,1.29,1.43,2.8,2.53,2.76c1.37-0.05,2.72-0.23,3.79-1.33
	c1.1-1.14,1.8-2.51,2.59-3.82c0.15-0.24,0.22-0.55,0.24-0.84c0.02-0.17-0.07-0.44-0.19-0.52c-0.14-0.08-0.46-0.07-0.57,0.03
	c-0.34,0.31-0.6,0.69-0.91,1.03c-0.45,0.49-0.84,1.01-1.62,1.06c-1.51,0.09-2.61-0.83-2.83-2.54c-0.21-1.64-0.02-3.24,0.77-4.75
	C653.47,612.88,655.11,610.74,657.02,608.78z M415.72,602.33c-0.59-1.95-1.57-3.67-2.9-5.2c-0.81-0.95-1.59-1.92-2.42-2.86
	c-0.37-0.42-0.81-0.78-1.31-1.26c-1.05,1.49-1.46,2.98-1.49,4.59c0,0.28,0.22,0.62,0.43,0.85c1.15,1.27,2.38,2.46,3.48,3.77
	c1.23,1.44,2.16,3.12,2.67,4.92c0.74,2.6,1.36,5.25,1.52,7.98c0.02,0.31,0.15,0.61,0.3,1.2c0.37-0.39,0.6-0.53,0.68-0.73
	c0.41-0.97,0.72-1.95,0.64-3.03C417.06,609.1,416.73,605.66,415.72,602.33z M248.17,634.32c-0.48-0.21-0.78,0.15-1.04,0.49
	c-0.2,0.25-0.35,0.58-0.61,0.77c-1.01,0.73-3.26,0.62-4.14-0.18c-1.12-1.01-1.71-3.2-1.09-4.34c0.68-1.23,1.39-2.47,2.19-3.63
	c1.15-1.65,2.24-3.32,2.79-5.28c0.11-0.37,0.28-0.73,0.41-1.07c-0.6-0.36-0.85-0.04-1.07,0.25c-0.39,0.49-0.76,1-1.12,1.51
	c-2.26,3.16-4.45,6.36-5.63,10.12c-0.66,2.13-0.79,4.22,0.25,6.31c0.6,1.2,1.53,1.67,2.76,1.81c1.02,0.12,1.89-0.31,2.72-0.78
	c0.79-0.45,1.73-0.85,2.24-1.54c0.72-0.99,1.12-2.21,1.62-3.36C248.62,635.01,248.65,634.53,248.17,634.32z M442.24,686.09
	c-1.5,0.96-3.65,0.83-5-0.31c-0.71-0.6-1.09-1.37-1.17-2.28c-0.1-1.35-0.04-2.68,0.58-3.92c0.5-1.01,0.97-2.03,1.47-3.04
	c1.24-2.5,2.65-4.93,3.54-7.59c0.13-0.38,0.36-0.79-0.26-1.16c-0.19,0.23-0.44,0.45-0.59,0.72c-0.56,1.02-1.1,2.06-1.64,3.09
	c-1.49,2.89-3.04,5.75-4.46,8.68c-1.02,2.09-1.45,4.35-1.33,6.68c0.18,3.36,2.75,5.26,5.94,4.42c2.07-0.54,3.92-3.26,3.69-5.64
	C442.67,685.89,442.44,685.96,442.24,686.09z M209.07,656.46c-0.16-0.1-0.54-0.05-0.67,0.09c-0.31,0.32-0.5,0.74-0.79,1.09
	c-0.25,0.31-0.52,0.76-0.84,0.81c-1.14,0.18-2.25,0.09-3.11-0.87c-0.83-0.92-1.36-1.95-1.45-3.23c-0.11-1.38,0.2-2.61,0.89-3.82
	c1.36-2.34,2.64-4.73,3.95-7.09c0.52-0.95,0.88-1.93,0.99-3.09c-0.82-0.07-0.95,0.45-1.17,0.82c-0.98,1.6-1.9,3.23-2.91,4.81
	c-2.18,3.41-4,6.95-4.29,11.08c-0.12,1.79,0.19,3.5,1.21,5.01c1.23,1.8,3.96,2.2,5.54,0.83c1.74-1.54,2.44-3.63,2.91-5.82
	C209.37,656.89,209.23,656.54,209.07,656.46z M530.5,661.69c0.55-1.06,0.93-2.22,1.35-3.34c0.12-0.34,0.22-0.83-0.24-0.97
	c-0.23-0.07-0.65,0.12-0.84,0.33c-1.18,1.25-2.23,2.59-2.99,4.14c-0.93,1.92-1.76,3.88-2.8,5.74c-1.7,3.02-2.37,6.3-2.64,9.69
	c-0.04,0.5,0,1,0.07,1.5c0.22,1.68,1.58,2.88,3.27,3.09c1.86,0.23,3.29-0.38,4.26-1.95c0.65-1.06,1.19-2.2,1.75-3.31
	c0.07-0.15-0.02-0.37-0.05-0.7c-0.35,0.2-0.68,0.28-0.81,0.49c-0.4,0.61-0.89,1-1.64,0.93c-0.7-0.06-1.45-0.05-2.07-0.33
	c-1.02-0.44-1.8-1.22-1.89-2.44c-0.11-1.43-0.04-2.9,0.59-4.17C527.3,667.45,528.97,664.61,530.5,661.69z M296.22,703.53
	c-0.28,0.03-0.55,0.04-0.82,0.09c-0.12,0.02-0.21,0.14-0.33,0.18c-1.07,0.33-2.1,0.75-3.29,0.53c-1.99-0.37-3.11-1.64-3.79-3.43
	c-0.24-0.62-0.41-1.27-0.64-1.89c-0.31-0.85-0.37-1.71-0.18-2.59c0.82-3.73,2.26-7.23,4.03-10.6c0.25-0.47,0.48-0.94,0.72-1.41
	c-0.1-0.07-0.2-0.14-0.29-0.21c-1.42,1.63-2.71,3.36-3.52,5.39c-0.92,2.28-1.74,4.61-2.69,6.87c-1.39,3.31-1.45,6.56,0.24,9.77
	c0.96,1.81,2.38,2.9,4.51,2.7c0.82-0.07,1.61-0.44,2.42-0.55c1.58-0.22,2.33-1.34,2.99-2.58c0.23-0.44,0.47-0.89,0.62-1.37
	C296.29,704.16,296.22,703.83,296.22,703.53z M631.21,696.52c-0.44,0.34-0.83,0.52-1.02,0.82c-0.81,1.21-1.91,1.62-3.32,1.5
	c-1.39-0.11-2.32-0.87-2.62-2.22c-0.49-2.25,0.18-4.34,0.98-6.34c0.73-1.81,1.82-3.47,2.75-5.19c0.84-1.54,1.7-3.06,2.51-4.61
	c0.26-0.5,0.53-1.05,0.19-1.93c-0.41,0.25-0.78,0.37-0.99,0.63c-1.05,1.24-2.15,2.42-2.84,3.93c-1.51,3.3-3.46,6.39-4.66,9.84
	c-0.86,2.47-1.33,4.99-0.98,7.62c0.17,1.31,1.24,2.68,2.3,2.83c2.02,0.27,3.79-0.25,5.27-1.69c1.27-1.23,1.96-2.79,2.56-4.4
	C631.4,697.16,631.29,696.94,631.21,696.52z M581.49,669.27c-2.54-2.29-5.09-4.57-7.66-6.84c-0.69-0.61-1.35-0.48-1.9,0.22
	c-1.74,2.18-2.89,4.68-4.02,7.19c-0.4,0.87-0.38,0.95,0.34,1.61c0.89,0.82,1.82,1.61,2.72,2.42c1.73,1.55,3.45,3.12,5.35,4.85
	c1.08-1.06,2.11-2.08,3.15-3.09c1.14-1.09,1.62-2.6,2.48-3.87C582.48,670.99,582.24,669.94,581.49,669.27z M359.02,649.89
	c-0.86-0.78-1.83-1.44-2.74-2.17c-1-0.81-2-1.63-2.98-2.46c-0.61-0.51-1.18-1.07-1.79-1.58c-0.64-0.53-1.31-0.51-1.76,0.06
	c-0.51,0.66-1.03,1.32-1.42,2.04c-0.99,1.83-1.91,3.69-2.87,5.53c-0.29,0.56-0.22,1.04,0.18,1.5c0.25,0.28,0.48,0.59,0.77,0.83
	c1.72,1.44,3.45,2.87,5.19,4.29c0.58,0.47,1.2,0.9,1.82,1.32c0.37,0.25,0.79,0.32,1.14-0.05c1.12-1.16,2.33-2.26,3.3-3.54
	c0.76-1.02,1.21-2.26,1.77-3.42c0.13-0.25,0.13-0.56,0.24-1.04C359.63,650.82,359.42,650.25,359.02,649.89z M682.14,704.24
	c-0.49-0.57-0.95-1.18-1.3-1.84c-0.75-1.44-1.88-2.39-3.37-3.02c-1.35-0.57-2.58-0.39-3.61,0.55c-1.24,1.12-1.57,2.72-2.06,4.35
	c2.39-0.8,4.69-0.36,5.8,1.23c-0.42,0.14-0.78,0.36-1.16,0.38c-1.47,0.07-2.73,0.74-4.03,1.3c-2.62,1.12-4.17,5.2-3.5,7.66
	c0.43,1.61,1.05,3.17,1.52,4.77c0.59,2,1.25,3.99,1.6,6.04c0.35,2.05,0.34,4.16,0.5,6.24c0.04,0.6-0.03,1.24,0.79,1.87
	c-0.02-1.04,0.08-1.77,0.74-2.29c0.22,0.13,0.45,0.25,0.71,0.39c0.35-0.93,0.41-1.78,0.25-2.66c-0.12-0.66-0.21-1.32-0.26-1.98
	c-0.07-0.92-0.06-1.84-0.13-2.76c-0.26-3.83-1.49-7.43-2.75-11.02c-0.12-0.36-0.26-0.71-0.31-1.08c-0.16-1.28-0.05-1.38,1.26-1.43
	c0.17,0,0.33-0.04,0.5-0.07c2.23-0.29,4.43-0.83,6.71-0.77c0.69,0.02,1.37-0.28,1.71-0.88c0.43-0.75,0.77-1.58,1-2.41
	C683,705.88,682.81,705,682.14,704.24z M500.62,641.19c-1.47-1.53-2.94-3.07-4.46-4.54c-0.44-0.43-1.02-0.73-1.58-0.99
	c-0.59-0.26-1.21-0.13-1.55,0.45c-0.51,0.85-1.06,1.72-1.36,2.65c-0.73,2.19-0.97,4.47-0.93,6.78c0.03,1.55,0.04,3.09,0.02,4.63
	c-0.01,0.86-0.05,1.74-1.02,2.24c-0.14-0.22-0.26-0.4-0.37-0.57c-1.28-2-2.58-4-3.83-6.02c-1.48-2.39-3.96-3.37-6.34-4.44
	c-1.07-0.48-1.77-0.13-2.24,0.94c-0.83,1.9-1.41,3.86-0.9,5.96c0.1,0.41,0.34,0.79,0.53,1.21c1.32-0.47,2.57-0.68,3.57-1.53
	c0.2-0.18,0.69-0.27,0.9-0.15c0.93,0.54,2.01,1.01,2.66,1.81c1.4,1.75,2.6,3.67,3.84,5.55c0.73,1.1,1.4,2.24,2.24,3.58
	c0.36-0.56,0.64-0.89,0.81-1.28c0.19-0.41,0.22-0.9,0.41-1.31c0.67-1.38,0.99-2.85,1.03-4.36c0.06-2.37,0.05-4.75,0.02-7.13
	c-0.01-0.94,0.16-1.81,0.54-2.67c0.54-1.24,1.26-1.52,2.31-0.63c1.78,1.5,3.6,2.98,4.75,5.08c0.09,0.16,0.3,0.26,0.55,0.47
	c0.22-0.35,0.5-0.6,0.53-0.88c0.15-1.32,0.25-2.65,0.3-3.98C501.06,641.77,500.84,641.42,500.62,641.19z M270.47,729.41
	c-0.08-0.11-0.68-0.01-0.87,0.17c-1.19,1.22-2.72,1.72-4.29,2.13c-0.84,0.21-1.73,0.2-2.58,0.36c-2.6,0.51-5.22,0.69-7.86,0.64
	c-1.34-0.03-2.61-0.46-3.71-1.33c-0.97-0.76-1.43-1.59-0.86-2.8c0.18-0.38,0.27-0.79,0.43-1.17c0.91-2.15,1.85-4.29,2.75-6.44
	c0.55-1.3,0.84-2.62,0.42-4.03c-0.26-0.87-0.5-1.06-1.43-1.04c-0.92,0.02-1.84,0.07-2.75,0.06c-0.37-0.01-0.76-0.08-1.09-0.24
	c-0.74-0.37-0.88-0.86-0.32-1.48c1.02-1.11,1.41-2.54,2.13-3.81c0.2-0.36,0.25-0.72-0.34-1c-1.06,1.19-2.21,2.25-3.07,3.52
	c-1.36,2.01-1.94,4.25-1.07,6.67c0.28,0.77,0.8,1.26,1.68,1.26c0.62-0.01,1.25-0.03,1.88-0.05c1.92-0.06,2.23,0.24,1.57,2.07
	c-0.65,1.85-1.46,3.65-2.35,5.39s-1.09,3.58-1.14,5.47c-0.01,0.46,0.13,1.05,0.42,1.39c1.47,1.74,3.39,2.75,5.66,2.79
	c1.36,0.02,2.74-0.24,4.08-0.5c3.82-0.72,7.38-2.13,10.7-4.13c1.12-0.67,1.85-1.68,2.25-2.91
	C270.8,730.12,270.67,729.66,270.47,729.41z M179.73,589.69c-2.73,0.68-5.47,0.87-8.23,0.85c-2.42-0.01-4.85,0.02-7.12-1.06
	c-0.46-0.22-0.88-0.11-1.11,0.44c-0.83,2-1.68,3.98-2.51,5.98c-0.11,0.27-0.14,0.57-0.18,0.86c-0.15,0.95-0.06,1.06,0.84,1.33
	c1.44,0.43,2.9,0.76,4.41,0.83c0.75,0.04,1.5,0.26,2.23,0.22c1.92-0.11,3.82-0.33,5.73-0.47c0.3-0.02,0.61,0.12,0.91,0.18
	c-0.12,0.33-0.22,0.66-0.35,0.98c-0.05,0.11-0.17,0.19-0.26,0.27c-1.66,1.46-3.29,2.96-4.99,4.36c-1.87,1.53-3.81,2.97-5.72,4.44
	c0.05,0.1,0.1,0.19,0.15,0.29c0.59-0.28,1.21-0.5,1.77-0.84c2.57-1.55,5.11-3.15,7.68-4.69c1.27-0.76,2.18-1.8,2.8-3.12
	c0.09-0.19,0.18-0.38,0.29-0.55c1.51-2.32,2.77-4.75,3.66-7.37C180.05,591.67,180.28,590.71,179.73,589.69z M472.65,674.83
	c-0.78-3.25-1.94-6.39-3.91-9.17c-1.7-2.39-3.48-4.69-5.99-6.32c-1.23-0.79-2.41-1.64-3.63-2.44c-0.22-0.15-0.51-0.19-0.81-0.29
	c-0.09,0.24-0.15,0.39-0.18,0.55c-0.04,0.16-0.01,0.35-0.08,0.49c-0.87,1.89-0.61,3.94-0.88,5.91c-0.12,0.86,0.27,1.5,1.04,1.98
	c1.31,0.81,2.64,1.62,3.84,2.58c2.47,1.97,4.47,4.37,5.96,7.18c1.79,3.39,2.85,6.92,2.38,10.82c-0.2,1.65-0.18,3.33-0.21,5
	c0,0.23,0.2,0.61,0.39,0.67c0.21,0.07,0.55-0.1,0.77-0.26c0.18-0.13,0.33-0.38,0.4-0.61c0.35-1.28,0.76-2.57,0.98-3.88
	c0.24-1.52,0.28-3.07,0.44-4.61C473.44,679.86,473.24,677.31,472.65,674.83z M687.32,633.67c-1.08,0.59-2.01,1.13-2.98,1.62
	c-1.97,1-3.98,1.92-5.93,2.97c-3.45,1.86-6.9,3.73-10.28,5.72c-4.64,2.72-9.33,5.39-13.71,8.54c-1.23,0.88-2.41,1.79-3.43,2.9
	c-1.63,1.76-2.44,3.85-2.53,6.23c-0.03,1.05,0.44,1.57,1.4,1.76c0.65,0.12,1.29,0.27,1.93,0.44c0.86,0.23,1.26-0.08,1.2-0.97
	c0-0.16-0.03-0.32-0.06-0.58c0.33,0.03,0.58,0.05,0.84,0.07c-0.02,0.6-0.45,1.21,0.25,1.54c0.52,0.24,1.1,0.39,1.66,0.51
	c0.48,0.11,0.88-0.06,1.2-0.48c0.59-0.78,0.73-1.68,0.75-2.6c0.03-1.34-0.23-1.71-1.54-2.01c-1.06-0.25-2.14-0.36-3.21-0.55
	c-0.33-0.06-0.66-0.18-1.18-0.33c0.39-0.37,0.57-0.59,0.8-0.74c1.09-0.77,2.16-1.58,3.3-2.28c3.48-2.14,6.96-4.3,10.49-6.36
	c4.04-2.35,8.13-4.62,12.21-6.9c2.08-1.16,4.18-2.27,6.26-3.41c0.95-0.52,1.67-1.24,2.03-2.28c0.23-0.66,0.5-1.32,0.69-2
	C687.54,634.26,687.39,633.98,687.32,633.67z M620.71,625c-0.39-0.39-0.82-0.73-1.18-1.13c-1.49-1.71-3.42-2.78-5.43-3.74
	c-0.93-0.44-1.85-0.07-2.2,0.91c-0.59,1.62-1.08,3.26-1.05,5c0.04,2.47,0.12,4.93,0.14,7.4c0,0.64-0.14,1.29-0.25,2.21
	c-0.44-0.32-0.62-0.41-0.76-0.55c-1.16-1.2-2.26-2.46-3.48-3.6c-2.18-2.06-4.64-3.67-7.57-4.5c-1.29-0.36-2.39,0.02-2.9,1.24
	c-0.47,1.1-0.82,2.27-1.05,3.45c-0.16,0.84-0.09,1.75-0.02,2.62c0.05,0.6,0.36,1.25,1.04,1.23c1.36-0.05,2.77-0.15,3.68-1.43
	c0.62-0.86,0.81-0.9,1.77-0.43c1.93,0.94,3.67,2.18,5.17,3.71c1.16,1.19,2.18,2.52,3.26,3.79c0.6,0.72,0.94,0.76,1.65,0.15
	c0.16-0.14,0.32-0.29,0.41-0.47c0.47-0.93,0.98-1.86,0.97-2.95c0-1.62-0.02-3.25-0.04-4.88c-0.03-1.96-0.1-3.93-0.09-5.89
	c0-1.1,0.74-1.56,1.77-1.19c0.32,0.11,0.61,0.28,0.9,0.44c1.71,0.96,3.01,2.37,4.33,3.76c0.71,0.75,0.92,0.79,1.47-0.05
	C622.22,628.64,621.96,626.24,620.71,625z M238.93,711.87c-0.3,0.15-0.54,0.4-0.84,0.54c-4.96,2.29-9.96,4.49-15.1,6.36
	c-3.06,1.12-6.11,2.25-9.12,3.48c-4.36,1.79-8.66,3.72-13.01,5.51c-2.99,1.23-5.72,2.91-8.46,4.58c-0.46,0.28-0.99,0.6-1.24,1.04
	c-0.85,1.52-1.61,3.1-2.36,4.67c-0.08,0.17,0.01,0.6,0.13,0.65c0.22,0.09,0.56,0.06,0.77-0.06c0.33-0.17,0.58-0.48,0.88-0.69
	c2.5-1.78,5.26-3.06,7.97-4.44c1.15-0.58,2.4-0.94,3.6-1.42c1.86-0.74,3.71-1.51,5.57-2.24c1.01-0.4,2.04-0.74,3.05-1.13
	c2.45-0.94,4.89-1.9,7.34-2.84c3.04-1.17,6.11-2.25,9.1-3.5c2.65-1.11,5.23-2.4,7.83-3.63c0.36-0.17,0.73-0.41,0.99-0.72
	c1.55-1.85,2.72-3.96,3.66-6.37C239.43,711.73,239.16,711.76,238.93,711.87z M291.37,592.31c-0.09-1.05-0.58-1.8-1.4-2.38
	c-1.39-0.97-2.86-0.76-4.31-0.19c-1.98,0.79-3.82,1.78-5.48,3.18c-1.79,1.51-3.71,2.86-5.13,4.76c-0.54,0.73-1.09,1.47-1.6,2.22
	c-0.52,0.76-0.69,0.84-1.54,0.52c-0.2-0.07-0.39-0.16-0.58-0.23c-3.21-1.23-6.29-1.15-9.16,0.9c-0.48,0.33-0.91,0.74-1.34,1.13
	c-1.88,1.67-3.61,3.47-5.1,5.5c-0.3,0.42-0.59,0.82-0.16,1.39c0.71-0.05,1.21-0.45,1.73-0.88c1.35-1.11,2.7-2.23,4.1-3.27
	c0.8-0.6,1.73-0.8,2.74-0.55c2.34,0.57,4.42,1.74,6.56,2.78c0.51,0.25,1.06,0.48,1.62,0.6c0.77,0.17,1.56,0.24,2.35,0.33
	c0.41,0.05,0.84,0.14,1.24,0.08c2.22-0.3,4.26-1.07,6.17-2.27c3.11-1.96,5.48-4.64,7.54-7.59
	C290.86,596.56,291.54,594.56,291.37,592.31z M285.31,598.76c-0.34,0.36-0.73,0.69-1.14,0.97c-2.04,1.41-4.32,2.07-6.84,2.15
	c-0.41-0.11-1.07-0.11-1.16-0.35c-0.27-0.65,0.49-0.71,0.85-0.99c1.37-1.09,2.85-2.03,4.52-2.59c0.78-0.26,1.6-0.43,2.41-0.55
	c0.35-0.05,0.75,0.08,1.08,0.22C285.67,597.88,285.76,598.26,285.31,598.76z M606.48,590.79c-1.51,0.56-2.87,1.05-4.23,1.56
	c-3.38,1.29-6.77,2.57-10.13,3.9c-3.14,1.24-6.32,2.42-9.38,3.85c-5.25,2.45-10.41,5.1-15.64,7.61c-1.02,0.49-1.79,1.2-2.15,2.17
	c-0.7,1.95-1.23,3.96-1.83,5.95c0.09,0.09,0.18,0.18,0.28,0.26c0.25-0.06,0.54-0.07,0.77-0.2c0.61-0.34,1.18-0.78,1.81-1.08
	c2.78-1.35,5.58-2.65,8.37-3.98c3.01-1.43,6.01-2.89,9.03-4.32c0.79-0.37,1.6-0.7,2.41-1.02c2.49-0.97,4.97-1.95,7.47-2.9
	c2.8-1.07,5.62-2.13,8.43-3.18c1.26-0.48,2.37-1.08,3.06-2.38c0.91-1.72,1.49-3.52,1.89-5.4
	C606.69,591.36,606.53,591.05,606.48,590.79z M649.72,633.87c-0.23-1.51-0.68-1.77-2.23-1.64c-1.79,0.14-3.58,0.29-5.37,0.28
	c-3.57-0.03-7.05-0.7-10.49-1.6c-0.97-0.24-1.05-0.17-1.63,0.66c-1.54,2.22-2.34,4.78-3.31,7.26c-0.47,1.19-0.21,1.63,1,2.09
	c0.19,0.08,0.4,0.13,0.6,0.17c1.44,0.27,2.87,0.54,4.31,0.8c3.38,0.62,6.78,0.7,10.41,0.32c-0.14,0.31-0.18,0.47-0.27,0.59
	c-1.96,2.31-4.18,4.3-6.87,5.75c-2.32,1.24-4.61,2.53-6.9,3.82c-0.43,0.24-0.92,0.5-1.19,0.88c-0.23,0.32-0.31,0.87-0.22,1.26
	c0.05,0.22,0.58,0.44,0.9,0.45c0.44,0.02,0.91-0.1,1.33-0.26c2.21-0.86,4.41-1.75,6.62-2.64c1.98-0.79,3.82-1.82,5.34-3.38
	c0.84-0.86,1.92-1.52,2.65-2.46c1.71-2.21,3.32-4.51,4.37-7.12C649.45,637.44,649.99,635.71,649.72,633.87z M405.56,705.89
	c-0.57,0.43-1.07,0.93-1.68,1.25c-2.1,1.1-4.19,2.25-6.38,3.18c-4.34,1.84-8.74,3.52-13.11,5.3c-5.13,2.09-10.27,4.18-15.38,6.34
	c-3.57,1.51-7.09,3.14-10.65,4.68c-0.78,0.34-1.35,0.91-1.66,1.62c-0.75,1.72-1.38,3.49-2.03,5.25c-0.07,0.18,0.04,0.61,0.15,0.65
	c0.23,0.07,0.54-0.01,0.76-0.12c0.34-0.16,0.6-0.47,0.94-0.61c1.99-0.85,4-1.67,6-2.5c2.72-1.15,5.45-2.29,8.18-3.44
	c1.68-0.71,3.36-1.44,5.06-2.12c2.2-0.89,4.43-1.73,6.63-2.62c2.51-1.02,5.03-2.02,7.5-3.12c2.17-0.97,4.32-2,6.4-3.13
	c1.79-0.98,3.5-2.1,5.21-3.23c0.5-0.33,0.94-0.84,1.26-1.36c1-1.63,1.94-3.31,2.89-4.97C405.84,706.6,405.93,706.25,405.56,705.89z
	 M452.47,731.49c-1.16-0.95-2.35-1.87-3.56-2.76c-1.85-1.35-3.74-2.66-5.61-3.99c-0.96-0.68-1.37-0.64-2.14,0.23
	c-1.41,1.6-2.65,3.32-3.62,5.23c-0.47,0.94-0.75,1.01-1.64,0.39c-1.64-1.14-3.27-2.3-4.89-3.47c-0.38-0.27-0.69-0.61-1.06-0.88
	c-0.91-0.67-1.8-1.37-2.77-1.95c-0.86-0.51-1.03-0.4-1.67,0.36c-1.64,1.97-3.02,4.1-4.2,6.37c-0.63,1.22-0.52,1.74,0.58,2.52
	c2.11,1.49,4.22,3,6.32,4.51c0.8,0.57,1.58,1.18,2.4,1.8c1.17-1.05,2.33-1.95,3.3-3.02c0.96-1.05,1.73-2.28,2.65-3.52
	c1.33,0.96,2.48,1.78,3.62,2.62c1.82,1.33,3.62,2.69,5.45,4.01c0.8,0.57,1.12,0.53,1.9-0.06c0.44-0.32,0.84-0.7,1.29-0.99
	c1.83-1.13,3.04-2.79,4.1-4.6C453.48,733.33,453.32,732.18,452.47,731.49z M479.6,600.89c-0.77-0.93-1.51-1.9-2.15-2.92
	c-1.69-2.71-4.08-4.59-6.86-6.04c-1.48-0.77-2.58-0.35-3.04,1.2c-0.44,1.52-0.8,3.07-1.08,4.62c-0.31,1.68-0.44,3.4-0.72,5.09
	c-0.33,1.99-0.42,3.97-0.02,5.97c0.11,0.53,0.16,1.09,0.08,1.62c-0.18,1.29-0.57,2.49-1.83,3.41c-0.27-0.43-0.49-0.77-0.7-1.11
	c-1.09-1.78-2.13-3.59-3.29-5.32c-1.55-2.32-3.82-3.93-5.9-5.73c-0.73-0.62-1.44-1.3-2.27-1.77c-1.59-0.89-3.26-1.64-4.9-2.46
	c-0.52-0.26-1.02-0.57-1.56-0.78c-0.5-0.19-1.07-0.46-1.54-0.37c-0.85,0.18-1.47,0.04-1.97-1c-0.22,0.5-0.37,0.71-0.4,0.94
	c-0.42,2.56-0.76,5.13-0.78,7.72c-0.02,1.33,0.33,2.57,0.88,3.75c0.48,1.03,1.29,1.42,2.45,1.33c1.11-0.08,2.15-0.36,3.03-1.06
	c0.76-0.61,1.52-0.61,2.3-0.19c0.85,0.45,1.72,0.89,2.48,1.46c1.76,1.33,3.5,2.69,5.03,4.3c1.32,1.39,2.6,2.82,3.56,4.5
	c0.88,1.56,1.8,3.11,2.75,4.63c0.55,0.87,1.25,0.88,1.77,0.05c1.6-2.54,2.68-5.26,2.89-8.3c0.23-3.13,0.23-6.25-0.03-9.39
	c-0.08-0.98,0.05-2.01,0.28-2.97c0.31-1.33,0.93-1.62,2.09-0.93c1.89,1.14,3.77,2.3,5.04,4.23c0.94,1.43,2.03,2.76,3.07,4.12
	c0.11,0.14,0.32,0.22,0.49,0.33c0.64-0.39,0.68-1,0.77-1.56c0.26-1.65,0.48-3.31,0.77-4.95
	C480.46,602.37,480.21,601.62,479.6,600.89z M145.34,593.22c-1.42-1.64-2.94-3.19-4.46-4.74c-0.9-0.93-2.2-0.56-2.63,0.7
	c-0.75,2.25-1.54,4.5-2.24,6.77c-0.75,2.4-1.08,4.88-1.26,7.38c-0.03,0.29-0.11,0.58-0.22,1.15c-0.32-0.45-0.49-0.62-0.59-0.83
	c-0.32-0.68-0.61-1.37-0.92-2.06c-1-2.21-2.11-4.35-3.85-6.11c-0.82-0.83-1.55-1.75-2.35-2.6c-1.14-1.21-2.47-2.12-4.07-2.6
	c-0.64-0.18-1.27-0.36-2.07-0.59c-1,1.91-1.82,3.84-1.42,6.07c0.03,0.17,0.06,0.33,0.1,0.49c0.34,1.11,2.03,1.53,2.86,0.73
	c0.72-0.7,0.88-0.77,1.66-0.12c0.93,0.76,1.81,1.59,2.61,2.49c1.13,1.28,2.32,2.55,3.19,4c0.96,1.61,1.56,3.42,2.35,5.12
	c0.3,0.64,0.06,0.99-0.45,1.35c-0.51,0.36-1.06,0.74-1.37,1.25c-0.99,1.59-1.43,3.36-1.4,5.24c0,0.15,0.2,0.3,0.38,0.57
	c0.24-0.32,0.41-0.54,0.56-0.76c0.85-1.28,2.09-1.89,3.27-1.56c1.11,0.32,1.9,1.11,2.95,1.83c-0.43,0.23-0.67,0.38-0.92,0.49
	c-1.22,0.54-2.43,1.09-3.66,1.58c-1.53,0.6-2.38,1.77-2.95,3.23c-0.11,0.27-0.24,0.53-0.34,0.81c-0.7,1.88-0.92,3.83-0.32,5.75
	c0.35,1.15,1.01,2.2,1.56,3.27c0.38,0.75,0.88,1.44,1.19,2.2c1.8,4.36,3.73,8.67,5.08,13.2c1.28,4.28,2.67,8.53,3.28,12.97
	c0.39,2.9,0.83,5.8,0,8.71c-0.12,0.41-0.25,0.91,0.29,1.23c0.55-0.11,0.69-0.55,0.8-1c0.12-0.53,0.18-1.09,0.37-1.59
	c0.73-1.9,0.95-3.9,0.96-5.9c0-3.01-0.18-6.01-1-8.94c-0.79-2.81-1.35-5.69-2.26-8.46c-1.24-3.81-2.66-7.55-4.1-11.29
	c-0.72-1.86-1.65-3.64-2.51-5.44c-0.29-0.6-0.69-1.15-0.95-1.76c-0.56-1.31-0.45-1.74,0.84-2.25c1.5-0.61,3.06-1.11,4.63-1.52
	c0.91-0.24,1.91-0.33,2.85-0.28c2.09,0.12,1.91,0.18,2.71-1.94c0.48-1.29,0.47-2.61-0.35-3.95c-1.28-2.08-2.98-3.69-4.87-5.15
	c-0.48-0.37-0.94-0.77-1.35-1.11c0.44-0.86,0.86-1.54,1.14-2.26c0.81-2.11,0.89-4.33,0.87-6.55c-0.01-2.02,0.22-4,0.9-5.92
	c0.4-1.13,0.89-1.28,1.8-0.5c0.47,0.41,0.84,0.93,1.33,1.32c1.18,0.96,2.15,2.09,2.97,3.37c0.24,0.36,0.57,0.66,0.86,0.99
	C146.7,598.01,146.94,595.08,145.34,593.22z M556.58,623.11c-0.57-0.34-1.19-0.6-1.77-0.93c-0.92-0.54-0.97-0.63-0.69-1.6
	c0.66-2.25,1.21-4.52,1.34-6.86c0.1-1.75,0.13-3.51,0.04-5.26c-0.08-1.68-0.86-2.31-2.5-2.21c-0.7,0.04-1.42,0.11-2.1,0.3
	c-1.52,0.44-3.04,0.91-4.52,1.45c-1.24,0.46-2.31,1.22-3,2.37c-0.66,1.11-1.25,2.26-1.88,3.39c-1.07,1.91-1.23,4.07-1.69,6.14
	c-0.4,1.82,0.13,3.46,1.45,4.82c1.23,1.27,2.64,2.28,4.3,2.94c0.25,0.1,0.45,0.33,0.77,0.57c-1.32,2.01-2.72,3.74-4.38,5.19
	c-2.38,2.09-4.86,4.09-7.38,6.01c-4.92,3.75-10.02,7.24-15.5,10.14c-1.51,0.8-3.02,1.62-4.47,2.52c-4.33,2.67-8.65,5.38-12.96,8.1
	c-1.19,0.74-2.33,1.55-3.5,2.32c0.04,0.08,0.08,0.17,0.12,0.25c0.32-0.13,0.65-0.23,0.96-0.38c2.14-1.04,4.25-2.15,6.42-3.13
	c3.91-1.78,7.92-3.36,11.7-5.43c1.42-0.78,2.93-1.42,4.42-2.07c1.53-0.66,3.1-1.22,4.63-1.89c1.72-0.76,3.43-1.53,5.09-2.41
	c1.7-0.9,3.39-1.83,4.96-2.92c2.62-1.82,4.86-4.06,6.88-6.54c1.73-2.11,3.37-4.26,4.24-6.89c0.13-0.39,0.35-0.76,0.55-1.12
	c0.45-0.79,0.75-0.91,1.64-0.53c1.67,0.71,3.33,1.47,5.11,2.26c0.08-0.1,0.34-0.28,0.43-0.52c0.74-1.95,1.47-3.91,2.14-5.88
	C557.81,624.21,557.58,623.71,556.58,623.11z M551.67,619.96c-0.01,0.52-0.44,0.77-0.89,0.56c-1.94-0.92-4.05-1.54-5.6-3.34
	c0.74-1.42,2.12-1.65,3.35-2.08c0.46-0.16,0.98-0.17,1.47-0.24c0.94-0.12,1.43,0.1,1.54,1.01
	C551.71,617.22,551.68,618.6,551.67,619.96z M374.27,597.16c-0.02-0.03-0.05-0.07-0.07-0.1c-0.96-1.16-1.85-2.38-2.89-3.46
	c-0.83-0.85-1.82-1.56-2.79-2.27c-0.23-0.17-0.65-0.15-0.97-0.1c-0.81,0.13-1.54,0.49-1.93,1.24c-0.75,1.45-1.66,2.86-2.08,4.4
	c-0.59,2.21-0.84,4.51-1.18,6.78c-0.38,2.64-0.68,5.3-1.06,7.94c-0.07,0.49-0.34,0.96-0.58,1.62c-0.31-0.39-0.49-0.56-0.6-0.76
	c-1.2-2.34-2.4-4.68-3.57-7.04c-2.2-4.44-5.3-8.09-9.36-10.92c-0.73-0.51-1.51-0.9-2.45-0.78c-1.39,0.18-2.19,1.09-2.42,2.36
	c-0.44,2.38-0.77,4.78-1.03,7.18c-0.07,0.61,0.22,1.31,0.5,1.89c0.36,0.75,0.83,0.9,1.67,0.68c1-0.25,2.01-0.47,2.84-1.22
	c0.56-0.51,0.99-0.27,1.07,0.5c0.02,0.2-0.02,0.41-0.02,0.62c-0.02,1.33,0,2.67-0.07,4c-0.04,0.69-0.15,1.42-0.42,2.05
	c-0.37,0.83-0.87,1.63-1.41,2.36c-1.58,2.1-3.15,4.21-4.83,6.24c-2.36,2.84-5.09,5.26-8.04,7.51c-4.32,3.29-8.78,6.37-13.5,9.07
	c-2.57,1.47-5.14,2.96-7.7,4.45c-0.52,0.3-1,0.66-1.49,1c0.05,0.1,0.1,0.19,0.15,0.29c0.68-0.28,1.36-0.55,2.03-0.84
	c2.49-1.08,4.98-2.16,7.46-3.25c0.73-0.31,1.45-0.63,2.16-0.98c1.7-0.87,3.39-1.76,5.07-2.65c0.58-0.31,1.15-0.65,1.7-0.99
	c1.62-1,3.04-2.42,5.15-2.34c0.27,0.01,0.58-0.11,0.83-0.26c2.02-1.18,3.99-2.47,5.52-4.26c1.6-1.87,3.17-3.76,4.59-5.78
	c1.84-2.62,3.07-5.42,3.55-8.59c0.29-1.89,0.81-3.75,1.24-5.62c0.04-0.14,0.19-0.25,0.31-0.41c0.18,0.07,0.39,0.09,0.47,0.2
	c1.23,1.63,2.54,3.21,3.63,4.93c2.02,3.18,3.76,6.51,5.34,9.93c0.18,0.4,0.45,0.76,0.83,1.41c0.88-1.19,1.39-2.26,1.67-3.34
	c0.56-2.14,0.98-4.32,1.29-6.51c0.43-2.98,0.65-5.98,1.04-8.97c0.16-1.24,0.52-2.46,1.31-3.47c0.84-1.08,1.46-1.22,2.55-0.38
	c1.08,0.84,2.03,1.85,3.03,2.79c0.85,0.81,1.65,1.65,2.08,2.78c0.21,0.55,0.54,1.04,1.38,1.11c0.14-0.41,0.32-0.82,0.41-1.24
	c0.26-1.22,0.49-2.45,0.72-3.68C375.87,599.69,375.78,599.33,374.27,597.16z M544.98,595.03c-0.53-0.35-1.04-0.23-1.73,0.22
	c-0.93,0.61-1.88,1.24-2.9,1.7c-2.09,0.93-4.24,1.74-6.35,2.62c-3.24,1.35-6.48,2.68-9.71,4.06c-3.98,1.71-7.95,3.47-11.93,5.19
	c-0.24,0.1-0.61,0.16-0.8,0.04c-0.37-0.24-0.12-0.57,0.03-0.88c1.09-2.31,1.89-4.71,2.22-7.26c0.25-1.91,0.47-3.81,0.12-5.74
	c-0.2-1.17-0.82-2.08-1.6-2.91c-0.46-0.48-1.05-0.65-1.71-0.63c-1.53,0.07-2.69,0.84-3.7,1.89c-1.13,1.18-1.64,2.7-2.13,4.2
	c-0.24,0.72-0.36,1.53-0.03,2.27c0.58,0.08,0.74-0.29,0.87-0.63c0.48-1.25,1.54-1.83,2.65-2.33c0.89-0.41,1.74-0.2,2.38,0.54
	c0.59,0.69,0.93,1.49,1.01,2.39c0.28,3.33-0.25,6.5-1.83,9.46c-0.2,0.37-0.58,0.71-0.96,0.89c-0.94,0.45-1.93,0.79-2.9,1.18
	c-2.55,1.04-5.11,2.05-7.65,3.13c-2.95,1.27-5.88,2.59-8.81,3.91c-2.63,1.17-5.28,2.31-7.87,3.57c-4.77,2.31-9.52,4.66-14.26,7.05
	c-2.68,1.35-5.34,2.75-7.95,4.24c-2.93,1.69-6.14,2.81-9.03,4.59c-3.63,2.24-7.36,4.29-11.02,6.47c-1.79,1.06-3.52,2.23-5.26,3.38
	c-0.25,0.16-0.43,0.49-0.57,0.77c-1.3,2.64-1.62,5.51-1.87,8.39c-0.03,0.36,0.14,0.87,0.41,1.08c0.36,0.29,0.73-0.05,1.09-0.31
	c1.73-1.25,3.43-2.53,5.24-3.65c3.3-2.04,6.64-4.01,10.02-5.92c4.03-2.28,8.12-4.48,12.2-6.68c2.49-1.35,5.01-2.66,7.54-3.95
	c5.02-2.55,10.05-5.1,15.1-7.6c2.28-1.13,4.62-2.14,6.93-3.21c2.05-0.95,4.06-1.97,6.14-2.85c3.8-1.61,7.65-3.11,11.46-4.7
	c2.47-1.03,4.9-2.14,7.35-3.2c4.4-1.91,8.81-3.82,13.22-5.72c2.64-1.13,5.31-2.22,7.96-3.35c0.92-0.4,1.8-0.89,2.73-1.25
	c1.19-0.46,2.02-1.27,2.64-2.36c0.23-0.39,0.45-0.83,0.78-1.13c1.38-1.24,1.95-2.98,2.9-4.49c0.11-0.18,0.21-0.37,0.27-0.57
	C545.81,596.47,545.37,595.29,544.98,595.03z M514.97,690.64c-0.35-1.59-0.8-3.15-1.64-4.58c-1.96-3.32-4.57-6.16-6.91-9.19
	c-0.16-0.2-0.31-0.41-0.5-0.57c-0.5-0.43-1.05-0.37-1.37,0.2c-0.5,0.9-1,1.82-1.41,2.78c-0.58,1.37-1.14,2.77-1.6,4.19
	c-0.29,0.87-0.43,1.77,0.32,2.59c0.71,0.76,1.3,1.63,1.93,2.46c1.39,1.88,2.79,3.76,4.15,5.66c0.46,0.64,0.4,1.07-0.24,1.47
	c-2.02,1.25-3.99,2.62-6.13,3.64c-2.63,1.26-5.39,2.25-8.11,3.31c-1.83,0.71-3.66,1.42-5.53,2c-3.47,1.08-6.96,2.08-10.45,3.08
	c-1.8,0.52-3.59,1.16-5.43,1.42c-3.09,0.44-6.1,1.51-9.27,1.37c-0.17-0.01-0.33,0.05-0.5,0.07c-4.54,0.75-9.09,1.19-13.71,1.1
	c-6.58-0.12-12.99-1.04-19.07-3.6c-2.69-1.13-5.15-2.75-7.39-4.66c-3.21-2.74-4.95-6.32-5.51-10.4c-0.47-3.47-0.63-6.99-0.82-10.49
	c-0.21-3.93-0.22-7.86-0.45-11.78c-0.32-5.67-0.61-11.36-1.17-17.01c-0.66-6.73-0.85-13.51-1.97-20.2c-0.41-2.47-0.73-4.95-1.1-7.43
	c-0.17-1.11-0.46-2.22-0.49-3.34c-0.02-0.9-0.33-1.64-0.76-2.34c-0.23-0.37-0.74-0.68-1.17-0.78c-0.61-0.15-0.86,0.44-1.05,0.89
	c-0.69,1.65-1.48,3.27-1.65,5.1c-0.08,0.83-0.38,1.63-0.51,2.45c-0.09,0.48-0.13,0.99-0.04,1.47c0.26,1.52,0.65,3.01,0.89,4.53
	c0.44,2.81,0.83,5.63,1.2,8.44c0.35,2.61,0.72,5.22,0.96,7.84c0.39,4.2,0.7,8.41,1.01,12.61c0.37,5,0.77,10,1.04,15
	c0.25,4.42,0.39,8.85,0.5,13.28c0.08,3.18,0.24,6.35,0.79,9.48c0.74,4.21,2.34,8.03,5.32,11.15c2.18,2.27,4.77,4.06,7.57,5.49
	c3.2,1.64,6.58,2.84,10.14,3.45c1.69,0.29,3.36,0.71,5.06,0.88c2.32,0.23,4.67,0.28,7,0.4c2.98,0.19,5.97,0.06,8.88-0.47
	c3.7-0.68,7.47-0.75,11.14-1.62c3-0.71,6.04-1.27,8.99-2.23c3.41-1.11,6.86-2.09,10.26-3.22c2.22-0.74,4.37-1.68,6.57-2.45
	c4.32-1.52,8.39-3.51,12.13-6.16c1.53-1.09,3.07-2.18,4.17-3.76c0.79-1.13,1.64-2.21,2.43-3.33c0.5-0.72,1.01-1.45,1.37-2.24
	c0.72-1.59,1.35-3.22,1.99-4.85C514.96,691.4,515.04,690.99,514.97,690.64z M686.46,667.26c-0.38-0.59-0.77-1.18-1.18-1.75
	c-1.83-2.55-4.16-4.52-7.22-5.32c-2.61-0.68-4.13-0.28-5.14,2.16c-1.07,2.6-1.81,5.31-2.3,8.06c-0.67,3.77-1.36,7.57-1.28,11.44
	c0.01,0.57-0.26,0.93-0.77,1.16c-2.5,1.09-5.09,1.57-7.82,1.33c-1.12-0.1-2.26-0.17-3.38-0.1c-2.58,0.18-4.99-0.4-7.31-1.43
	c-1.02-0.46-2.11-0.83-2.77-1.85c-0.56-0.88-1.18-1.73-1.74-2.61c-0.92-1.44-1.79-2.92-2.75-4.33c-0.22-0.33-0.7-0.61-1.1-0.67
	c-0.52-0.07-0.73,0.44-0.9,0.89c-0.88,2.18-1.33,4.48-1.68,6.79c-0.15,0.93-0.23,1.9,0.36,2.79c1.12,1.66,2.18,3.36,3.29,5.03
	c0.61,0.94,1.3,1.83,1.92,2.76c1.22,1.84,2.56,3.61,3.43,5.67c0.36,0.87,0.29,1.57-0.27,2.33c-1.28,1.71-2.72,3.26-4.37,4.62
	c-2.84,2.35-5.74,4.6-8.89,6.51c-2.96,1.8-5.9,3.64-8.95,5.27c-1.98,1.05-4.08,2.03-6.25,2.55c-3.15,0.75-6.36,1.33-9.66,1.31
	c-3.47-0.03-6.75-0.81-9.7-2.54c-3.48-2.02-5.89-5.04-6.99-8.96c-0.32-1.13-0.44-2.29-0.18-3.48c0.53-2.44,0.99-4.9,1.47-7.35
	c0.1-0.52,0.37-0.79,0.88-0.93c1.36-0.37,2.73-0.74,4.07-1.19c3.7-1.26,7.1-3.05,10.3-5.34c4.15-2.98,6.4-7.21,8.17-11.75
	c1.06-2.72,1.49-5.64,1.61-8.58c0.06-1.6-0.12-3.14-0.73-4.66c-0.87-2.19-2.36-3.95-3.92-5.62c-2.76-2.93-5.94-5.4-9.26-7.65
	c-3.8-2.58-7.76-4.92-11.56-7.5c-4.87-3.31-9.97-6.27-14.55-10.01c-1.71-1.39-3.46-2.75-5.17-4.14c-0.21-0.17-0.31-0.45-0.53-0.77
	c0.47-0.3,0.84-0.56,1.23-0.77c2.28-1.25,4.72-2.12,7.17-2.96c2.45-0.83,4.88-1.7,7.34-2.52c3.64-1.21,7.28-2.44,10.95-3.56
	c3.91-1.19,7.86-2.26,11.79-3.39c2.49-0.71,4.97-1.46,7.45-2.17c3.53-1.02,7.06-2.05,10.6-3.02c3.99-1.09,7.97-2.18,11.99-3.15
	c3.73-0.91,7.49-1.71,11.26-2.47c3.31-0.67,6.62-1.4,9.97-1.79c3.69-0.43,7.42-0.5,11.13-0.74c1.91-0.12,3.07,0.81,3.24,3.11
	c0.08,1.12,0.07,2.26,0.08,3.38c0.01,0.38,0.03,0.79-0.1,1.12c-0.83,1.96-1.55,3.98-2.58,5.83c-1.83,3.32-3.81,6.57-5.82,9.79
	c-2.21,3.54-4.52,7.02-6.78,10.53c-1.22,1.9-2.43,3.8-3.6,5.73c-0.3,0.5-0.78,1.03-0.31,1.87c0.33-0.2,0.68-0.34,0.9-0.58
	c1.64-1.78,3.41-3.47,4.83-5.41c2.34-3.2,4.5-6.54,6.63-9.87c1.83-2.85,3.55-5.76,5.26-8.68c2.33-3.97,4.34-8.08,5.78-12.47
	c0.95-2.9,1.17-5.82,0.93-8.78c-0.17-1.98-0.95-3.69-2.8-4.77c-1.02-0.6-2.09-0.56-3.16-0.61c-5.58-0.29-11.09,0.43-16.59,1.29
	c-2.51,0.39-4.99,0.98-7.47,1.51c-3.67,0.79-7.34,1.6-11,2.41c-1.67,0.37-3.33,0.77-4.99,1.16c-2.35,0.56-4.72,1.06-7.05,1.71
	c-3.5,0.97-6.96,2.08-10.45,3.06c-3.42,0.96-6.86,1.81-10.28,2.76c-3.25,0.9-6.5,1.85-9.73,2.81c-2.68,0.8-5.36,1.61-8.02,2.47
	c-3.41,1.1-6.79,2.3-10.2,3.4c-3.64,1.18-7.05,2.81-10.09,5.15c-0.3,0.23-0.61,0.5-0.95,0.6c-0.89,0.25-1.26,0.91-1.5,1.7
	c-0.56,1.88-1.18,3.75-1.63,5.65c-0.4,1.69-0.41,3.49,0.29,5.05c0.69,1.54,1.76,2.92,2.77,4.3c1.97,2.66,4.81,4.36,7.31,6.44
	c2.82,2.36,5.92,4.33,9.02,6.32c3.42,2.18,6.76,4.47,10.15,6.69c1.95,1.28,4,2.42,5.89,3.8c2.56,1.86,5.02,3.88,7.51,5.85
	c1.75,1.39,3.13,3.13,4.39,4.96c1.05,1.53,0.99,2.04-0.2,3.4c-3.51,4.02-7.73,7.02-12.76,8.79c-2.95,1.04-5.91,2.11-8.94,2.84
	c-2.04,0.5-4.02,1.11-5.96,1.83c-2.27,0.85-4.47,1.88-6.65,2.93c-3.12,1.5-6.18,3.12-9.13,4.95c-5.47,3.38-10.49,7.3-14.99,11.88
	c-3.32,3.38-6.23,7.09-9.1,10.85c-1.51,1.99-3.06,3.98-5.11,5.47c-0.88,0.64-1.73,1.45-2.72,1.75c-2.43,0.75-4.86,0.54-7.14-0.72
	c-1.46-0.8-2.47-1.96-3.13-3.47c-0.81-1.87-1.77-3.71-1.35-5.9c1.35-0.81,2.75-1.56,4.07-2.44c3.5-2.34,7-4.69,10.45-7.11
	c2.6-1.82,5.18-3.68,7.31-6.06c1.05-1.18,2.16-2.33,3.03-3.64c1.08-1.63,1.95-3.4,2.9-5.12c1.83-3.31,3.18-6.8,3.73-10.57
	c0.06-0.45,0.09-0.91,0.07-1.37c-0.15-3.34-1.46-6.23-3.53-8.79c-1.24-1.53-2.52-3.01-3.79-4.51c-0.23-0.29-0.51-0.57-0.22-1.04
	c0.15,0.02,0.31,0.01,0.46,0.04c0.53,0.12,1.05,0.3,1.59,0.36c0.67,0.06,0.92-0.33,0.67-0.94c-0.07-0.15-0.16-0.3-0.26-0.43
	c-1.21-1.65-2.45-3.27-3.63-4.94c-0.51-0.71-0.9-1.5-1.34-2.25c-0.4-0.69-0.74-1.41-1.21-2.04c-0.44-0.58-0.96-0.5-1.3,0.12
	c-0.36,0.66-0.68,1.33-1.02,1.99c-1.05,1.98-1.35,4.19-1.96,6.31c-0.36,1.27-0.3,2.57,0.08,3.84c1.08,3.52,2.88,6.65,5.22,9.47
	c1.47,1.76,3.21,3.33,4.23,5.42c1.58,3.22,1.81,3.11-0.32,5.95c-2.56,3.41-5.73,6.17-9.25,8.56c-3.9,2.66-7.76,5.38-11.64,8.06
	c-0.43,0.3-0.82,0.7-1.57,0.66c0.13-0.34,0.19-0.59,0.32-0.82c0.24-0.44,0.56-0.83,0.76-1.29c0.7-1.66,1.56-3.25,2.73-4.6
	c1.18-1.38,2.11-2.88,2.9-4.5c0.27-0.56,0.5-1.15,0.68-1.75c0.16-0.57-0.19-1.32-0.71-1.62c-0.61-0.35-0.94,0.15-1.24,0.51
	c-0.35,0.41-0.7,0.85-0.9,1.34c-0.45,1.1-1.09,2.04-1.9,2.91c-0.72,0.8-1.37,1.69-1.91,2.62c-0.89,1.5-1.71,3.06-2.48,4.62
	c-0.7,1.42-1.27,2.9-1.98,4.31c-0.25,0.49-0.7,0.96-1.18,1.23c-0.98,0.55-2.02,1.01-3.07,1.42c-3.46,1.33-6.94,2.62-10.4,3.95
	c-3.47,1.32-6.9,2.73-10.39,3.98c-3.38,1.21-6.79,2.31-10.21,3.39c-4.5,1.41-9.03,2.73-13.53,4.15c-2.9,0.91-5.78,1.92-8.66,2.91
	c-0.24,0.08-0.45,0.26-0.68,0.4c0.02,0.09,0.03,0.18,0.04,0.27c0.47,0.02,0.94,0.08,1.4,0.05c3.59-0.17,7.17-0.33,10.75-0.56
	c2.67-0.17,5.36,0.03,7.99-0.6c0.35-0.09,0.75-0.02,1.12-0.03c2.39-0.02,4.77,0,7.12-0.5c0.44-0.09,0.92-0.06,1.38-0.06
	c2.41,0,4.7-0.52,6.92-1.45c1.35-0.56,2.7-1.12,4.08-1.59c2.93-1,5.71-2.32,8.5-3.64c2.07-0.98,4.19-1.88,6.3-2.76
	c0.93-0.39,1.14-0.16,1.25,0.84c0.14,1.2,0.27,2.42,0.6,3.57c0.46,1.64,1.13,3.23,1.65,4.86c0.26,0.78,0.64,1.41,1.24,1.99
	c1.05,1,2.02,2.11,3.05,3.14c0.32,0.32,0.72,0.59,1.13,0.77c1.07,0.47,2.14,0.95,3.25,1.3c1.97,0.62,3.98,0.78,5.84-0.3
	c1.26-0.73,2.46-1.57,3.6-2.46c1.63-1.26,2.82-2.94,4.13-4.51c2.54-3.05,5.11-6.08,7.68-9.1c0.38-0.44,0.84-0.81,1.27-1.2
	c0.59-0.54,1.17-1.07,1.77-1.6c1.22-1.08,2.39-2.21,3.67-3.21c1.82-1.41,3.74-2.66,5.56-4.06c2.86-2.21,6.03-3.91,9.19-5.61
	c2.13-1.14,4.44-1.95,6.57-3.08c1.39-0.74,2.83-1.21,4.31-1.63c1.39-0.39,1.59-0.19,1.32,1.19c-0.02,0.13-0.06,0.25-0.08,0.37
	c-0.27,1.35-0.61,2.69-0.8,4.06c-0.48,3.49-0.22,7-0.08,10.5c0.12,3.11,1.34,5.82,3.17,8.17c3.28,4.22,7.63,6.8,12.96,7.62
	c2.55,0.39,5.07,0.31,7.63,0.08c4.64-0.43,9.03-1.61,13.1-3.91c3.6-2.04,7.15-4.16,10.47-6.63c2.35-1.75,4.64-3.57,6.83-5.5
	c2.21-1.95,3.92-4.34,5.29-6.95c0.74-1.4,1.3-2.89,2-4.31c0.71-1.44,1.21-2.92,1.32-4.54c0.09-1.23,0.34-2.45,0.52-3.7
	c1.83,0,3.54-0.01,5.24,0.01c1.72,0.01,3.44,0.22,5.14,0.05c3.11-0.31,5.97-1.58,8.71-3c2.29-1.18,4.44-2.65,6.6-4.07
	c2.63-1.74,4.67-4.03,5.94-6.95c0.3-0.69,0.75-1.31,1.02-2c0.43-1.08,0.87-2.18,1.12-3.31c0.25-1.13,0.29-2.32,0.4-3.48
	C687.48,670.32,687.42,668.71,686.46,667.26z M681.37,675.79c-2.04,1.44-4.12,2.84-6.22,4.21c-0.72,0.47-1.53,0.83-2.33,1.21
	c-0.67,0.31-0.97,0.09-0.78-0.61c0.12-1.7,0.17-3.41,0.39-5.1c0.17-1.36,0.55-2.69,0.86-4.03c0.15-0.65,0.56-0.92,1.26-0.96
	c1.25-0.09,2.47,0.07,3.48,0.76c1.27,0.86,2.45,1.87,3.61,2.89C682.25,674.7,682.17,675.23,681.37,675.79z M395.44,677.28
	c-0.16-0.86-0.41-1.7-0.6-2.55c-0.6-2.58-2.2-4.47-4.27-5.99c-2.74-2.01-5.88-3.12-9.17-3.86c-1.68-0.37-3.32-0.2-4.93,0.34
	c-3.15,1.04-5.65,3.02-7.77,5.51c-0.98,1.15-1.96,2.29-2.93,3.44c-3.03,3.62-6,7.28-8.29,11.45c-1.16,2.12-2.65,4.05-3.83,6.16
	c-0.86,1.53-2.02,1.93-3.62,1.59c-1.18-0.24-2.47-0.2-3.54-0.67c-1.94-0.86-3.76-1.99-5.63-3.02c-1.37-0.74-2.34-1.82-2.87-3.32
	c-0.41-1.13-0.88-2.25-1.35-3.37c-0.35-0.8-0.71-1.61-1.14-2.37c-0.51-0.89-1.5-1.07-1.9-0.33c-0.58,1.06-1.11,2.15-1.55,3.27
	c-0.47,1.16-0.77,2.39-1.19,3.56c-0.38,1.04-0.38,2.03,0.06,3.05c0.75,1.72,1.44,3.47,2.19,5.19c1.26,2.92,2.58,5.8,3.81,8.73
	c0.45,1.07,0.74,2.21,1.07,3.33c0.26,0.91-0.06,1.53-0.84,2.13c-4.32,3.31-9.25,5.51-14.18,7.66c-3.79,1.66-7.77,2.8-11.8,3.77
	c-4.38,1.04-8.83,1.4-13.3,1.5c-1.79,0.05-3.59-0.23-5.38-0.28c-1.82-0.06-3.58-0.37-5.28-0.98c-2.12-0.75-4.31-1.37-6.32-2.35
	c-1.82-0.89-3.52-2.09-5.14-3.33c-2.56-1.96-4.24-4.58-5.17-7.66c-0.75-2.47-1.03-5-0.81-7.57c0.07-0.78,0.19-1.59,0.47-2.31
	c0.49-1.23,1.19-2.39,1.69-3.63c0.28-0.69,0.71-1.09,1.35-1.36c0.73-0.31,1.47-0.62,2.17-0.98c1.74-0.91,3.53-1.8,4.66-3.49
	c1.59-2.35,3.26-4.66,4.1-7.43c0.43-1.44,1-2.85,1.3-4.32c0.51-2.44,0.36-4.95-0.09-7.36c-0.69-3.69-1.58-7.35-2.6-10.96
	c-1.46-5.18-3.16-10.29-4.67-15.46c-0.98-3.33-1.8-6.69-2.68-10.04c-0.05-0.2,0.04-0.42,0.08-0.86c0.74,0.74,1.31,1.33,1.91,1.89
	c1.86,1.74,3.76,3.44,5.59,5.21c2.35,2.26,4.68,4.53,6.95,6.86c1.95,2,3.85,4.06,5.7,6.16c3.14,3.54,5.93,7.33,8.11,11.56
	c1.3,2.53,2.55,5.08,3.22,7.86c0.41,1.71,0.66,3.45,1.13,5.13c0.65,2.3,0.56,4.63,0.49,6.97c-0.01,0.25-0.06,0.5-0.12,0.74
	c-0.35,1.2-0.64,2.43-1.08,3.59c-0.65,1.68-0.7,3.43-0.81,5.18c-0.03,0.32,0.02,0.68,0.15,0.97c0.18,0.42,0.65,0.46,0.9,0.08
	c0.71-1.13,1.54-2.21,2.03-3.43c1.61-4.06,2.65-8.28,3.27-12.59c0.48-3.26,0.28-6.51-0.31-9.73c-0.66-3.63-1.55-7.2-3.09-10.56
	c-1.9-4.15-4.27-8.05-7.09-11.65c-2.3-2.93-4.81-5.66-7.34-8.39c-3.42-3.68-7.1-7.09-10.7-10.58c-1.67-1.63-3.43-3.18-5.08-4.84
	c-1.86-1.86-3.59-3.85-5.47-5.69c-0.93-0.91-1.66-1.84-1.88-3.15c-0.07-0.36-0.35-0.74-0.62-1c-0.48-0.45-1.05-0.8-1.56-1.22
	c-0.79-0.64-1.69-0.41-1.95,0.52c-0.61,2.21-1.19,4.43-1.81,6.63c-0.36,1.27-0.32,2.47,0.35,3.63c0.15,0.25,0.26,0.53,0.31,0.82
	c0.36,2.26,0.69,4.53,1.04,6.8c0.26,1.61,0.48,3.22,0.83,4.81c0.59,2.69,1.29,5.36,1.93,8.04c0.53,2.23,0.92,4.5,1.57,6.7
	c1.51,5.07,3.17,10.1,4.7,15.17c0.83,2.76,1.56,5.54,2.24,8.34c0.46,1.9,0.66,3.87,1.12,5.77c0.26,1.07,0.07,1.4-0.98,1.99
	c-0.8,0.44-1.66,0.79-2.5,1.14c-0.85,0.36-1.7,0.73-2.58,0.97c-2.01,0.53-3.99-0.12-5.95-0.44c-3.05-0.49-5.45-2.41-7.89-4.17
	c-0.56-0.4-0.49-0.85,0.15-1.14c1.98-0.88,3.98-1.72,5.95-2.61c0.48-0.22,1.04-0.5,1.29-0.92c1.33-2.2,2.9-4.26,3.76-6.74
	c0.57-1.63,0.36-2.4-1.21-3.12c-0.84-0.38-1.71-0.69-2.56-1.04c-2.97-1.23-6.03-2.2-9.22-2.71c-1.28-0.21-2.56-0.39-3.84-0.55
	c-2.44-0.3-4.88-0.66-7.34-0.83c-3.71-0.27-7.43-0.15-11.15,0.14c-2.89,0.23-5.73,0.64-8.3,2.08c-1.13,0.63-2.24,1.28-3.33,1.96
	c-0.44,0.28-0.99,0.58-1.19,1.01c-0.44,0.94-0.76,1.94-0.99,2.95c-0.39,1.66-0.68,3.34-0.99,5.02c-0.07,0.41-0.12,0.84-0.09,1.25
	c0.08,0.9,0.61,1.33,1.52,1.23c0.96-0.1,1.91-0.25,2.87-0.36c2.9-0.34,5.74-0.18,8.53,0.8c2.7,0.95,5.17,2.32,7.53,3.9
	c0.08,0.05,0.09,0.21,0.16,0.37c-0.22,0.14-0.42,0.3-0.64,0.39c-2.12,0.88-4.22,1.81-6.38,2.59c-2.63,0.94-5.28,1.83-7.97,2.59
	c-3.05,0.86-6.16,1.54-9.36,1.66c-2.75,0.1-5.52,0.08-8.27,0.26c-4.47,0.29-8.85-0.38-13.17-1.36c-3.4-0.76-6.57-2.21-9.52-4.09
	c-3.11-1.99-5.44-4.59-6.43-8.3c-0.84-3.12-1.28-6.3-1.73-9.48c-0.27-1.9-0.36-3.82-0.58-5.73c-0.43-3.69-0.89-7.38-1.37-11.07
	c-0.11-0.88,0.03-1.47,0.89-1.95c1.9-1.06,3.74-2.21,5.58-3.37c2.15-1.35,4.23-2.82,6.22-4.42c1.96-1.57,3.94-3.1,5.69-4.9
	c0.94-0.96,1.94-1.82,3.18-2.39c0.41-0.19,0.79-0.49,1.13-0.79c2.43-2.18,4.72-4.52,6.67-7.13c1.49-1.99,2.86-4.11,3.5-6.59
	c0.55-2.15,1.18-4.27,1.72-6.41c0.33-1.3,0.54-2.62,0.82-3.92c0.05-0.27,0.2-0.51,0.31-0.77c0.28,0.13,0.61,0.2,0.84,0.39
	c1.38,1.2,2.32,2.75,3.15,4.34c1.31,2.51,2.52,5.08,3.78,7.62c0.69,1.38,1.36,2.77,2.08,4.13c0.37,0.71,1,0.89,1.54,0.46
	c1.6-1.3,2.74-2.87,3.06-4.99c0.41-2.74,0.53-5.48,0.4-8.25c-0.14-2.98,0.06-5.93,1.07-8.78c0.35-0.98,1.05-1.32,1.91-0.76
	c0.84,0.54,1.65,1.15,2.44,1.76c1.85,1.42,3.04,3.42,4.45,5.23c0.69,0.9,0.94,0.88,1.57-0.11c0.54-0.85,0.74-1.76,0.89-2.72
	c0.21-1.44,0.51-2.89,0.17-4.35c-0.09-0.39-0.29-0.78-0.52-1.09c-0.53-0.7-1.18-1.32-1.67-2.04c-1.66-2.47-3.84-4.38-6.37-5.92
	c-1.19-0.73-2.63-0.23-3.11,1.07c-0.14,0.39-0.25,0.8-0.44,1.17c-0.92,1.75-1.54,3.61-1.81,5.56c-0.38,2.73-0.69,5.47-0.95,8.21
	c-0.16,1.7-0.19,3.42-0.26,5.13c-0.03,0.56-0.07,1.08-0.8,1.35c-0.2-0.28-0.42-0.51-0.56-0.79c-1.05-2.04-2.07-4.1-3.11-6.14
	c-0.34-0.67-0.8-1.29-1.03-1.99c-0.74-2.24-2.11-4.09-3.53-5.89c-1.91-2.43-4.65-3.92-7.09-5.74c-0.32-0.24-0.87-0.26-1.31-0.25
	c-1.39,0.06-2.35,0.82-2.91,2.05c-0.49,1.06-1,2.13-1.33,3.24c-0.49,1.7-0.6,3.46-0.22,5.21c0.23,1.01,0.47,1.1,1.51,1.06
	c0.66-0.03,1.32,0.05,1.98,0.07c0.7,0.02,1.37,0.17,1.99-0.44c0.72-0.72,1.64-0.39,1.82,0.64c0.1,0.6,0.12,1.28-0.06,1.86
	c-0.34,1.15-0.37,2.31-0.29,3.48c0.07,1.11-0.14,2.15-0.59,3.16c-1.15,2.58-2.68,4.94-4.52,7.05c-2.99,3.43-5.74,7.05-9,10.26
	c-2.38,2.35-4.79,4.65-7.37,6.78c-2.7,2.23-5.46,4.39-8.2,6.59c-0.81,0.66-1.59,1.35-2.42,1.99c-0.23,0.19-0.55,0.27-0.99,0.47
	c-0.18-0.74-0.4-1.33-0.47-1.93c-0.2-1.7-0.36-3.41-0.51-5.12c-0.28-3.41-0.46-6.84-0.82-10.25c-0.42-4.03-0.99-8.04-1.48-12.05
	c-0.09-0.77-0.45-1.35-1.12-1.71c-0.58-0.3-1.1-0.09-1.29,0.5c-0.46,1.43-1.04,2.84-1.31,4.31c-0.33,1.79-0.62,3.65-0.54,5.46
	c0.11,2.49,0.63,4.97,0.88,7.46c0.53,5.28,1.01,10.56,1.47,15.85c0.06,0.72-0.06,1.45-0.11,2.32c0.53,0.29,0.52,0.98,0.6,1.65
	c0.15,1.33,0.36,2.65,0.49,3.98c0.21,2.07,0.6,4.16,0.53,6.23c-0.17,5.16,0.24,10.27,0.69,15.39c0.23,2.63,0.58,5.22,1.02,7.82
	c0.69,4.04,1.07,8.12,1.53,12.19c0.29,2.55,0.95,5,1.76,7.42c0.09,0.26,0.15,0.54,0.23,0.85c-0.27,0.14-0.48,0.28-0.71,0.34
	c-3.38,1.01-6.53,2.57-9.63,4.19c-3.45,1.8-6.83,3.71-10.23,5.59c-3.65,2.02-7.24,4.16-10.97,6.04c-2.52,1.28-5.19,2.28-7.86,3.22
	c-1.92,0.67-3.96,0.99-5.93,1.53c-2.3,0.63-4.63,0.64-6.97,0.51c-0.78-0.04-1.56-0.2-2.33-0.38c-1.8-0.43-3.2-1.54-4.58-2.72
	c-2.6-2.23-3.09-5.1-2.75-8.27c0.02-0.2,0.09-0.41,0.18-0.6c0.59-1.19,1.17-2.39,1.8-3.56c1.33-2.48,3.16-4.6,4.93-6.75
	c0.53-0.64,1.08-1.33,1.76-1.77c1.56-1.01,2.83-2.34,4.2-3.57c1.45-1.31,2.7-2.83,4.37-3.92c1.21-0.8,2.3-1.78,3.42-2.72
	c0.6-0.5,0.93-1.18,1.02-1.96c0.12-0.95-0.46-1.61-1.43-1.62c-0.65-0.02-1.22,0.2-1.73,0.61c-0.59,0.47-1.21,0.9-1.79,1.37
	c-1.11,0.89-2.2,1.79-3.28,2.71c-1.57,1.37-3.13,2.75-4.69,4.14c-0.78,0.69-1.62,1.32-2.29,2.11c-1.57,1.83-3.12,3.7-4.58,5.63
	c-2.38,3.16-4.37,6.53-4.97,10.53c-0.36,2.39-0.44,4.82-0.11,7.24c0.15,1.12,0.26,2.24,0.44,3.35c0.12,0.78,0.28,1.56,0.51,2.31
	c0.22,0.71,0.58,1.38,0.84,2.09c1.32,3.53,3.87,5.73,7.5,6.53c2.82,0.62,5.7,0.66,8.59,0.11c2.88-0.54,5.72-1.2,8.49-2.16
	c3.36-1.17,6.46-2.92,9.59-4.58c1.18-0.63,2.34-1.28,3.47-1.98c1.07-0.65,2.05-1.45,3.14-2.06c4.03-2.28,8.08-4.53,12.15-6.76
	c3.49-1.92,7.11-3.54,11.01-4.42c1.26-0.28,2.55-0.5,3.83-0.57c1.62-0.1,3.26-0.05,4.89-0.01c0.62,0.02,1.29,0.04,1.84,0.28
	c2,0.83,3.99,1.68,5.92,2.66c1.45,0.73,2.8,1.66,4.19,2.51c0.48,0.29,0.86,0.23,1.15-0.28c0.15-0.25,0.35-0.47,0.47-0.73
	c1.11-2.26,1.96-4.6,2.42-7.09c0.26-1.41-0.21-2.44-1.29-3.29c-1.99-1.55-4.14-2.81-6.63-3.4c-0.89-0.22-1.8-0.47-2.6-0.88
	c-2.08-1.08-4.15-2.16-6.12-3.41c-1.81-1.13-3.5-2.48-4.31-4.58c-0.45-1.17-0.83-2.36-1.19-3.56c-0.29-0.98-0.49-1.98-0.73-2.97
	c0.63-0.24,0.86,0.22,1.15,0.47c1.46,1.27,3.1,2.25,4.8,3.15c2,1.07,4.07,1.98,6.23,2.59c2.05,0.57,4.15,0.91,6.24,1.32
	c2.84,0.54,5.71,0.77,8.61,0.62c2.09-0.11,4.18-0.16,6.26-0.3c2.17-0.14,4.37-0.18,6.49-0.59c5.63-1.1,11.03-2.96,16.28-5.3
	c4.21-1.87,8.32-3.9,12.21-6.34c1.06-0.67,1.72-0.57,2.67,0.07c2.66,1.8,5.36,3.55,8.09,5.24c1.41,0.88,2.87,1.74,4.41,2.35
	c1.22,0.48,2.6,0.58,3.91,0.83c0.96,0.18,1.14,0.45,0.7,1.35c-1.01,2.08-1.62,4.29-2.04,6.56c-0.24,1.31-0.33,2.66-0.63,3.96
	c-0.8,3.47-0.41,6.89,0.35,10.29c0.1,0.45,0.21,0.9,0.37,1.33c1.46,3.83,3.72,7.08,7.06,9.53c1.88,1.38,3.73,2.85,5.96,3.65
	c3.49,1.25,6.95,2.55,10.7,2.97c3.23,0.37,6.45,0.53,9.63,0.15c3.47-0.41,7-0.57,10.38-1.67c2.7-0.88,5.5-1.47,8.13-2.52
	c3.75-1.5,7.51-3.05,10.98-5.17c2.06-1.26,4.09-2.58,6.05-4c0.94-0.68,1.8-1.54,2.46-2.48c1.55-2.22,3.25-4.38,4.2-6.94
	c0.72-1.95,1.29-3.96,1.78-5.98c0.25-1.01,0.2-1.1,1.26-1c1.87,0.2,3.73,0.42,5.61,0.54c4.28,0.27,8.5-0.2,12.71-1.01
	c4.98-0.97,9.87-2.26,14.51-4.28c4.38-1.91,8.4-4.42,11.44-8.31c1.82-2.34,3.72-4.59,4.92-7.35
	C394.95,681.1,395.8,679.34,395.44,677.28z M256.15,670.82c-1.08,0.67-2.14,1.38-3.25,2c-0.24,0.13-0.7,0.07-0.95-0.08
	c-1.58-0.98-3.13-2.01-4.69-3.03c0.3-0.63,0.72-0.56,1.13-0.5c2.14,0.29,4.29,0.58,6.43,0.89c0.46,0.07,0.9,0.24,1.35,0.36
	C256.17,670.58,256.16,670.7,256.15,670.82z M388.45,684.18c-2.27,1.72-4.66,3.24-7.29,4.36c-4.32,1.84-8.87,2.89-13.45,3.87
	c-3.15,0.67-6.33,1.15-9.56,1.21h-1.3c0.28-0.6,0.41-0.93,0.58-1.24c2.61-4.84,6.04-9.1,9.56-13.29c0.32-0.38,0.72-0.71,1.12-1.01
	c1.71-1.28,3.49-2.46,5.55-3.08c1.71-0.52,3.48-0.34,5.2,0.1c2.36,0.61,4.59,1.49,6.65,2.85c1.73,1.14,2.75,2.75,3.46,4.62
	C389.24,683.26,389.05,683.73,388.45,684.18z M630.74,413.18c0.03,4.98-1.85,7.41-6.49,8.67c-7.16,1.93-14.28,4-21.4,6.05
	c-3.67,1.06-7.35,2.12-11.03,3.15c-1.61,0.46-2.87,0.71-3.85,0.71c-0.1,0-0.18-0.01-0.26-0.01c-2.34-0.12-2.92-1.91-2.93-6.28
	c-0.09-35.52,0.18-71.04-0.51-106.54c-0.22-10.94-1.65-22.31-5.11-32.62c-4.58-13.65-16.08-21.67-29.29-26.71
	c-8.21-3.14-16.14-3.04-23.69,0.19c-2.15,0.92-4.27,2.09-6.35,3.52c-0.47,0.32-1.09,0.43-1.74,0.47c-0.22,0.01-0.45,0.02-0.67,0.02
	c-0.3,0.01-0.59,0.01-0.88,0.02c-0.18,0-0.35,0.01-0.52,0.03c-0.07,0-0.14,0.01-0.21,0.02c0.09-1.17-0.25-2.63,0.32-3.47
	c13.69-20.27,2.05-40.22-13.63-49.88c-13.41-8.27-28-14.72-42.34-21.4c-18.56-8.65-36.55-18.02-49.61-34.39
	c-4.16-5.21-7.29-11.23-11.08-17.19c-0.03-0.06-0.07-0.12-0.11-0.18c-1.19,2.07-2.3,4.12-3.43,6.13c-0.79,1.42-1.59,2.81-2.43,4.17
	c-0.46,0.76-0.94,1.51-1.43,2.24c-0.78,1.16-1.59,2.28-2.42,3.38c-1.51,2-3.09,3.91-4.75,5.72c-0.96,1.06-1.95,2.09-2.96,3.08
	c-0.27,0.27-0.54,0.54-0.81,0.8c-0.45,0.43-0.9,0.86-1.36,1.28c-0.39,0.37-0.79,0.73-1.19,1.08c-1.15,1.03-2.32,2.02-3.51,2.99
	c-1.34,1.08-2.72,2.14-4.12,3.16c-0.1-0.04-0.2-0.1-0.3-0.15c0.05,0.09,0.1,0.17,0.15,0.26c-2.28,1.65-4.63,3.22-7.03,4.71
	c-0.67,0.42-1.35,0.83-2.04,1.24c-3.86,2.3-7.86,4.44-11.95,6.44c-0.66,0.33-1.32,0.65-1.98,0.97c-0.32,0.15-0.63,0.3-0.95,0.45
	c-0.24,0.12-0.48,0.23-0.73,0.35c-0.12,0.05-0.25,0.11-0.37,0.17c-1.17,0.55-2.35,1.1-3.53,1.64c-0.81,0.37-1.62,0.74-2.44,1.1
	c-2.46,1.12-4.93,2.21-7.4,3.3c-2.32,1.01-4.64,2.03-6.96,3.04c-2.08,0.93-4.16,1.85-6.23,2.78c-3.92,1.77-7.82,3.58-11.67,5.49
	c-9.29,4.62-17.65,10.87-23.76,19.56c-6.58,9.34-8.64,18.94-5.24,28.86c0.51,1.49,1.14,2.99,1.91,4.49
	c0.41,0.82,0.86,1.64,1.35,2.46c0.94,1.59,1.42,3.45,1.12,6.19c0,0.02-0.01,0.05-0.01,0.08c-1.38-0.57-2.91-0.93-4.13-1.76
	c-4.72-3.2-9.55-5-14.43-5.57c-0.38-0.04-0.76-0.08-1.13-0.1c-0.28-0.03-0.55-0.05-0.83-0.05c-0.75-0.04-1.5-0.04-2.25-0.01
	c-0.31,0.01-0.62,0.03-0.93,0.04c-4.65,0.26-9.34,1.58-13.99,3.83c-0.04,0.02-0.09,0.04-0.13,0.06c-12.32,6-21.58,14.4-26.17,25.89
	c-2.01,5-3.12,10.59-3.21,16.82c-0.11,7.31-0.2,14.61-0.29,21.92c-0.4,33.18-0.61,66.37-0.86,99.55c-0.05,7.46-0.24,7.97-7.21,6.16
	c-11.6-3-23.17-6.11-34.61-9.64c-1.84-0.57-3.83-3.44-4.16-5.49c-0.66-4.15-0.27-8.47-0.23-12.72c0.31-35.32,0.51-70.65,0.99-105.97
	c0.54-39.11,32.95-64.94,62.73-70.23c1.31-0.23,2.64-0.33,3.96-0.41c0.03,0,0.06,0,0.09-0.01c0.81-0.06,1.61-0.1,2.39-0.17
	c4.35-32.87,27.96-48.67,54.24-61.62c17.52-8.63,35.83-15.63,53.45-24.06c12.03-5.76,21.22-15.29,29.13-25.93
	c9.67-13,17.32-27.02,20.83-43c0.54-2.49,0.19-5.19,0.75-7.69c0.3-1.32,1.68-2.39,2.58-3.57c0.03,0.04,0.06,0.08,0.1,0.12
	c0.92,1.15,2.4,2.24,2.53,3.46c0.44,4.47,1.21,8.77,2.27,12.91c1.1,4.32,2.52,8.47,4.22,12.48c1.99,4.73,4.36,9.26,7.06,13.62
	c0.26,0.44,0.53,0.88,0.81,1.31c1.77,2.79,3.66,5.51,5.67,8.17c1.63,2.19,3.35,4.34,5.13,6.45c2.37,2.82,4.86,5.59,7.43,8.31
	c1.53,1.61,3.13,3.11,4.79,4.51c-1.2,0.48-2.41,0.94-3.62,1.41c1.4-0.31,2.79-0.63,4.19-0.95c5.35,4.42,11.33,7.87,17.5,10.98
	c4.02,2.03,8.12,3.92,12.2,5.84c4.1,1.94,8.25,3.79,12.4,5.63c12.9,5.68,25.92,11.12,38.29,17.77c3.44,1.85,6.78,3.86,9.95,6.06
	c10.89,7.55,19.95,17.29,25.39,30.16c1.56,3.68,2.69,7.66,3.34,11.63c0.09,0.54,0.17,1.09,0.24,1.64c0.44,3.43,1.38,4.29,4.9,4.83
	c4.83,0.73,9.43,1.78,13.8,3.16c20.61,6.48,36.14,20.13,45.84,40.88c1.94,4.14,3.31,8.44,4.29,12.85c2.05,9.23,2.36,18.9,2.41,28.42
	c0.01,1.33,0.01,2.65,0.01,3.98C630.76,348.88,630.58,381.03,630.74,413.18z M345.49,252.59c0,7.11-3.82,13.33-9.53,16.7
	c-2.56,1.53-5.51,2.48-8.66,2.66c-0.19,0.02-0.38,0.03-0.57,0.04s-0.39,0.01-0.58,0.01c-0.08,0-0.17,0-0.25-0.01
	c-0.19,0.01-0.38,0-0.57-0.01c-0.17-0.01-0.33-0.02-0.5-0.03c-0.46-0.03-0.91-0.09-1.36-0.15c-0.23-0.03-0.46-0.07-0.68-0.11
	c-0.21-0.04-0.41-0.08-0.61-0.12c-0.38-0.08-0.75-0.17-1.12-0.28c-8.28-2.2-14.39-9.72-14.39-18.7c0-9.82,7.29-17.94,16.76-19.21
	c0.27-0.04,0.54-0.07,0.81-0.1c0.32-0.03,0.64-0.06,0.96-0.07c0.29-0.02,0.59-0.03,0.88-0.03h0.21c4.12,0.04,7.93,1.37,11.05,3.6
	c0.5,0.35,0.98,0.73,1.44,1.14C342.89,241.48,345.49,246.73,345.49,252.59z M686.6,413.49c-0.14,0.35-0.29,0.69-0.43,1.04
	c-0.14,0.33-0.27,0.65-0.41,0.98c-2.01,4.84-4.02,9.68-6.04,14.51c-3.33,7.97-6.67,15.94-10.06,23.88c-1.66,3.88-3.32,7.75-5,11.61
	c-0.8,1.85-3.11,3.89-5.03,4.27c-1.68,0.34-3.35,0.67-5.03,1.02c-24.38,4.91-48.73,10.04-73.27,13.97
	c-17.06,2.73-34.03,5.83-50.74,9.92c-8.17,1.99-16.28,4.22-24.32,6.77c-32.33,10.22-63.08,23.61-86.46,49.5
	c-7.6,8.42-13.83,17.78-16.91,28.89c-0.14,0.54-0.29,1.08-0.42,1.63c-0.32,1.28-1.83,2.27-2.84,3.38c-0.04,0.04-0.07,0.07-0.1,0.11
	c-0.83-1.03-2.07-1.93-2.43-3.09c-4.49-14.92-13.13-27.17-24.35-37.71c-22.64-21.27-50.3-33.29-79.39-42.58
	c-27.71-8.85-56.26-13.68-84.92-18.28c-23.12-3.73-46.04-8.76-68.99-13.5c-1.92-0.39-4.14-2.59-4.97-4.5
	c-7.53-17.23-14.79-34.58-22.05-51.93c-0.44-1.07-0.21-2.41-0.43-5.53c4.39,2.89,7.14,5.37,10.37,6.73
	c8.4,3.54,16.76,7.25,25.2,10.7c6.07,2.47,12.18,4.81,18.38,6.86c0.49,0.16,0.98,0.32,1.47,0.48c12.44,4.06,25.02,7.52,37.7,10.59
	c9.84,2.38,19.74,4.54,29.67,6.55c9.48,1.94,19,3.74,28.52,5.51c4.66,0.87,9.3,1.8,13.91,2.83c10.08,2.23,20.03,4.88,29.77,8.11
	c15.82,5.23,31.09,12,45.51,21.01c3.45,2.16,6.8,4.43,10.02,6.82c9.7,7.18,18.25,15.46,25.1,25.28c3.6,5.15,6.72,10.72,9.3,16.77
	c0.9,2.13,1.63,4.34,2.24,5.95c4.04-7.43,7.52-15.39,12.34-22.42c14.27-20.79,34.71-33.83,57.22-44.11
	c25.94-11.85,53.62-17.31,81.34-23.07c26.53-5.5,52.91-11.97,78.99-19.3c15.19-4.27,29.72-10.96,44.43-16.84
	c3.36-1.34,6.19-3.97,9.42-5.74c1.1-0.6,2.65-0.4,4-0.56C686.82,411.17,687.03,412.46,686.6,413.49z M400,454.1
	c0,10.65-8.58,19.29-19.2,19.41h-0.12c-0.24,0-0.49-0.01-0.73-0.02c-0.39-0.02-0.79-0.04-1.17-0.09c-0.1,0-0.19-0.01-0.29-0.03
	c-0.24-0.02-0.48-0.06-0.72-0.09c-0.3-0.05-0.59-0.1-0.89-0.16c-8.94-1.72-15.7-9.56-15.7-19.02c0-10.22,7.89-18.58,17.92-19.33
	c0.22-0.02,0.44-0.04,0.67-0.05h0.07c0.27-0.02,0.55-0.02,0.84-0.02h0.12C391.42,434.81,400,443.45,400,454.1z M438.81,454.1
	c0,10.72-8.69,19.41-19.41,19.41c-10.05,0-18.33-7.66-19.3-17.47c0.07-0.64,0.1-1.29,0.1-1.94c0-0.29,0-0.57-0.02-0.86
	c0-0.1,0-0.21-0.02-0.31v-0.08c-0.01-0.2-0.03-0.4-0.05-0.6c0-0.04-0.01-0.08-0.01-0.12v-0.01c0.99-9.79,9.26-17.42,19.3-17.42
	C430.12,434.7,438.81,443.38,438.81,454.1z M507.63,320.6c-24.47-25.16-49.58-49.7-74.4-74.52c-7.96-7.96-13.07-15.22-15.4-22.55
	c-2.71-8.53-1.67-17.16,3.06-27.12c0.93-1.96,2-3.98,3.22-6.06c1-1.71,2.1-3.47,3.3-5.27c-0.6-0.31-1.28-0.43-1.94-0.44
	c-0.97-0.02-1.93,0.22-2.67,0.5c-38.15,14.7-46.83,61.58-16.76,92.31c25.23,25.79,51.74,50.36,76.28,76.77
	c17.14,18.44,14.53,45.82-3.28,59.97c-1.45-18.86-5.56-28.46-19.23-42.1c-14.83-14.8-29.98-29.3-44.87-44.05
	c-7.83-7.76-15.6-15.6-23.21-23.58c-7.78-8.15-15.81-18.45-17.92-28.94c-2.16-10.76,2.7-22.93,4.72-35.78
	c0.01-0.06,0.02-0.11,0.03-0.17c-6.69,4.64-13.96,9.32-20.26,15.38c-20.84,20.02-41.89,40.22-62.31,60.68
	c-25.31,25.37-31.11,55.94-21.55,89.27c10,34.86,49.76,61.88,80.64,56.57c-14.62-21.62-13.36-33.37,5.36-52.31
	c8.04-8.14,16.02-16.35,23.93-24.51c4.58-4.72,9.13-9.42,13.67-14.08l0.11,0.1l37.49,35.78c22.25,22.21,23.23,28,9.59,55.91
	c9.46,0.57,19.08-1.03,28.27-4.41c11.6-4.26,22.5-11.37,31.5-20.54c6.6-6.73,12.18-14.58,16.25-23.24
	C535.16,384.6,529.51,343.11,507.63,320.6z M319.84,415.16c-20.68-20.94-14.3-51.48,1.03-65.9c4.51-4.24,8.83-8.67,13.11-13.19
	c4.97-5.24,9.88-10.6,14.97-15.91c0.04,0.04,0.08,0.08,0.11,0.12c7.19,7.6,13.47,14.26,20.07,21.25
	C352.21,365.08,320.13,379.3,319.84,415.16z"/>
</svg>
